#!OML:ASF F:\VICON\USERDATA\INSTALL\rory3\rory3.ASF
:FULLY-SPECIFIED
:DEGREES
1601
root -1.69357 16.9575 30.8528 -518.261 -22.8366 174.728
lowerback -5.45503 -4.19419 -5.70847
upperback -8.82095 -6.27869 1.35125
thorax -5.46461 -3.09707 4.54634
lowerneck -4.07915 0.0453825 -4.3532
upperneck 34.6036 -5.62309 5.21018
head 12.3324 -4.05464 1.78248
rclavicle -8.58501e-015 -4.37326e-015
rhumerus 92.2778 -16.2288 -55.1797
rradius 32.884
rwrist -54.6236
rhand 13.6654 6.7619
rfingers 7.12502
rthumb 38.594 -18.8732
lclavicle -8.58501e-015 -4.37326e-015
lhumerus 85.1776 21.6645 38.5442
lradius 36.102
lwrist 35.4867
lhand 24.5912 17.8986
lfingers 7.12502
lthumb 48.7855 39.7364
rfemur -244.862 -188.605 179.351
rtibia 42.944
rfoot 300.981 -361.083
rtoes 63.6053
lfemur -29.1273 -0.591751 -33.0527
ltibia 31.1092
lfoot -34.4947 27.1458
ltoes -2.48474
1602
root -1.7189 16.9483 30.8559 -518.73 -22.2407 174.758
lowerback -5.58136 -4.24347 -5.67439
upperback -8.75541 -6.33486 1.32983
thorax -5.32134 -3.13436 4.48655
lowerneck -4.03194 0.32757 -4.19317
upperneck 34.7951 -5.27114 5.08106
head 12.3719 -3.92121 1.74133
rclavicle 5.91012e-014 1.59028e-014
rhumerus 94.5222 -14.9209 -59.6129
rradius 31.4099
rwrist -54.6975
rhand 14.248 7.2271
rfingers 7.12502
rthumb 39.1434 -18.2517
lclavicle 5.91012e-014 1.59028e-014
lhumerus 86.7285 21.4616 40.4984
lradius 34.7676
lwrist 35.9907
lhand 24.7293 17.3966
lfingers 7.12502
lthumb 48.9125 39.1721
rfemur -244.795 -188.879 179.552
rtibia 43.0108
rfoot 301.027 -361.154
rtoes 63.8213
lfemur -28.5397 -0.358648 -33.228
ltibia 30.9887
lfoot -34.6732 26.6376
ltoes -2.1535
1603
root -1.74619 16.9384 30.8594 -519.127 -21.6815 174.686
lowerback -5.71996 -4.24712 -5.68151
upperback -8.83262 -6.36059 1.23883
thorax -5.33468 -3.15765 4.38796
lowerneck -3.47518 0.637736 -4.05128
upperneck 34.9173 -4.98792 5.06211
head 12.2856 -3.84049 1.74212
rclavicle 4.51303e-014 -7.95139e-015
rhumerus 96.239 -13.5352 -63.7596
rradius 29.9796
rwrist -55.0504
rhand 14.7515 7.61673
rfingers 7.12502
rthumb 39.6177 -17.7235
lclavicle 4.51303e-014 -7.95139e-015
lhumerus 87.9939 20.9341 42.1952
lradius 33.6604
lwrist 37.1307
lhand 24.7324 17.5083
lfingers 7.12502
lthumb 48.9154 39.2824
rfemur -244.727 -189.033 179.647
rtibia 43.1282
rfoot 301.011 -361.959
rtoes 63.909
lfemur -27.9525 0.0301735 -33.5254
ltibia 30.8074
lfoot -35.0027 26.0155
ltoes -1.34267
1604
root -1.77262 16.9316 30.8574 -519.52 -21.1635 174.836
lowerback -5.94495 -4.24318 -5.45742
upperback -8.90802 -6.37336 1.21898
thorax -5.31077 -3.18794 4.22844
lowerneck -3.14053 0.941251 -4.0035
upperneck 35.1419 -4.67183 4.98751
head 12.2878 -3.75604 1.73753
rclavicle 3.23149e-014 -3.18055e-015
rhumerus 97.6378 -12.2435 -67.2525
rradius 28.9958
rwrist -56.3109
rhand 14.6912 7.19699
rfingers 7.12502
rthumb 39.5609 -18.16
lclavicle 3.23149e-014 -3.18055e-015
lhumerus 89.441 20.2031 44.5113
lradius 32.5371
lwrist 37.6403
lhand 24.7194 17.6607
lfingers 7.12502
lthumb 48.9034 39.4407
rfemur -244.714 -189.225 179.949
rtibia 43.1912
rfoot 300.724 -362.489
rtoes 63.9126
lfemur -27.5021 0.503597 -33.602
ltibia 30.6857
lfoot -35.3332 25.6349
ltoes -0.492064
1605
root -1.80352 16.9273 30.8534 -519.798 -20.5393 174.878
lowerback -6.45052 -4.2004 -5.3097
upperback -8.87128 -6.30747 1.12901
thorax -5.01837 -3.18565 4.00635
lowerneck -2.89796 1.16775 -3.80487
upperneck 35.2837 -4.42732 4.85779
head 12.2759 -3.6742 1.67699
rclavicle 6.99474e-015 1.59028e-015
rhumerus 98.8183 -11.2261 -70.2286
rradius 28.2173
rwrist -57.732
rhand 14.3348 6.68756
rfingers 7.12502
rthumb 39.2251 -18.7676
lclavicle 6.99474e-015 1.59028e-015
lhumerus 90.6612 19.6363 46.2088
lradius 31.7539
lwrist 38.8681
lhand 24.028 17.6747
lfingers 7.12502
lthumb 48.2673 39.7619
rfemur -244.753 -189.453 180.108
rtibia 43.2031
rfoot 300.295 -362.809
rtoes 63.8534
lfemur -27.1164 0.566093 -33.7398
ltibia 30.6218
lfoot -35.8792 25.8746
ltoes -1.05523
1606
root -1.83365 16.9119 30.8455 -520.17 -19.9963 175.039
lowerback -7.04262 -4.18019 -5.08413
upperback -8.80508 -6.26557 1.07497
thorax -4.64698 -3.19975 3.76855
lowerneck -2.33128 1.36849 -3.50845
upperneck 35.1858 -4.2072 4.70551
head 12.0969 -3.5951 1.59254
rclavicle 1.43373e-014 6.36111e-015
rhumerus 99.6522 -10.332 -72.7081
rradius 27.4593
rwrist -59.1229
rhand 14.0625 6.7389
rfingers 7.12502
rthumb 38.9684 -18.7902
lclavicle 1.43373e-014 6.36111e-015
lhumerus 91.6148 19.0886 47.5105
lradius 31.1742
lwrist 40.5395
lhand 23.1443 17.8164
lfingers 7.12502
lthumb 47.4521 40.2808
rfemur -244.622 -189.681 180.417
rtibia 43.1763
rfoot 300.008 -362.638
rtoes 63.747
lfemur -26.63 -0.132925 -33.5913
ltibia 30.5753
lfoot -37.1035 26.4936
ltoes -0.390603
1607
root -1.86435 16.8954 30.8362 -520.515 -19.4052 175.276
lowerback -7.60469 -4.16817 -4.7937
upperback -8.7833 -6.24727 1.09161
thorax -4.3372 -3.2255 3.57398
lowerneck -1.83928 1.5984 -3.39617
upperneck 35.1405 -3.95138 4.63078
head 11.9595 -3.51678 1.57189
rclavicle 2.57426e-014 3.97569e-016
rhumerus 100.321 -9.40483 -74.8208
rradius 26.8133
rwrist -60.4924
rhand 14.0003 6.2906
rfingers 7.12502
rthumb 38.9098 -19.2552
lclavicle 2.57426e-014 3.97569e-016
lhumerus 92.7926 18.4313 49.6093
lradius 30.3689
lwrist 40.4073
lhand 23.3445 17.6673
lfingers 7.12502
lthumb 47.637 40.0477
rfemur -244.571 -189.944 180.742
rtibia 43.1964
rfoot 299.998 -362.554
rtoes 63.6846
lfemur -26.2249 0.464244 -33.5929
ltibia 30.4481
lfoot -37.3888 26.2388
ltoes 0.177669
1608
root -1.88964 16.8935 30.8241 -520.807 -18.8051 175.204
lowerback -8.12248 -4.23173 -4.89111
upperback -8.6802 -6.30048 1.11673
thorax -3.92522 -3.26357 3.59472
lowerneck -1.928 1.84122 -3.38299
upperneck 35.4049 -3.61793 4.44784
head 12.0659 -3.41326 1.52788
rclavicle 5.90639e-014 1.03368e-014
rhumerus 100.944 -8.4689 -76.7125
rradius 26.3672
rwrist -61.6284
rhand 13.8065 5.27747
rfingers 7.12502
rthumb 38.727 -20.3202
lclavicle 5.90639e-014 1.03368e-014
lhumerus 93.8088 17.9875 51.5743
lradius 29.8017
lwrist 40.0347
lhand 23.57 17.2634
lfingers 7.12502
lthumb 47.8451 39.5482
rfemur -244.506 -190.101 180.808
rtibia 43.2942
rfoot 300.184 -364.021
rtoes 63.5989
lfemur -25.714 0.756222 -33.8148
ltibia 30.2634
lfoot -37.7239 26.2756
ltoes -0.738199
1609
root -1.91515 16.8919 30.8083 -521.083 -18.3522 174.893
lowerback -8.58028 -4.3262 -5.11661
upperback -8.63351 -6.40587 0.99249
thorax -3.60905 -3.32599 3.53672
lowerneck -1.73303 2.07322 -3.23374
upperneck 35.618 -3.37008 4.29065
head 12.0987 -3.34573 1.46122
rclavicle 4.1049e-014 -7.95139e-016
rhumerus 101.094 -7.81413 -78.1325
rradius 26.2593
rwrist -62.5888
rhand 13.4018 4.66929
rfingers 7.12502
rthumb 38.3452 -21.0352
lclavicle 4.1049e-014 -7.95139e-016
lhumerus 93.8393 17.718 51.6965
lradius 30.0891
lwrist 41.7262
lhand 22.8593 17.2195
lfingers 7.12502
lthumb 47.1888 39.8021
rfemur -244.334 -190.046 180.717
rtibia 43.4373
rfoot 300.471 -365.405
rtoes 63.5855
lfemur -25.0788 1.41526 -34.2977
ltibia 30.0322
lfoot -37.512 26.1835
ltoes -2.2522
